HIERARCHY
ROOT Hips
{
    OFFSET   0.000000   0.000000   0.000000
    CHANNELS 6 Xposition Yposition Zposition Zrotation Xrotation Yrotation
    JOINT Chest
    {
        OFFSET   0.000000   8.007240   0.000000
        CHANNELS 3 Zrotation Xrotation Yrotation
        JOINT Chest2
        {
            OFFSET   0.000000  22.077100   0.000000
            CHANNELS 3 Zrotation Xrotation Yrotation
            JOINT Neck
            {
                OFFSET   0.000000  23.254800   0.000000
                CHANNELS 3 Zrotation Xrotation Yrotation
                JOINT Head
                {
                    OFFSET   0.000000  14.370000   1.956600
                    CHANNELS 3 Zrotation Xrotation Yrotation
                    End Site
                    {
                        OFFSET   0.000000  19.566000   0.000000
                    }
                }
            }
            JOINT LeftCollar
            {
                OFFSET   3.911900  19.017000  -0.467064
                CHANNELS 3 Zrotation Xrotation Yrotation
                JOINT LeftShoulder
                {
                    OFFSET  10.383700   0.000000   0.000000
                    CHANNELS 3 Zrotation Xrotation Yrotation
                    JOINT LeftElbow
                    {
                        OFFSET  26.662100   0.001476   0.000517
                        CHANNELS 3 Zrotation Xrotation Yrotation
                        JOINT LeftWrist
                        {
                            OFFSET  28.869000  -0.000025  -0.000106
                            CHANNELS 3 Zrotation Xrotation Yrotation
                            JOINT LeftFinger0
                            {
                                OFFSET   2.044660  -2.323460   3.252850
                                CHANNELS 3 Zrotation Xrotation Yrotation
                                JOINT LeftFinger01
                                {
                                    OFFSET   3.088130   0.000000   0.000000
                                    CHANNELS 3 Zrotation Xrotation Yrotation
                                    JOINT LeftFinger02
                                    {
                                        OFFSET   2.639460   0.000000   0.000000
                                        CHANNELS 3 Zrotation Xrotation Yrotation
                                        End Site
                                        {
                                            OFFSET   2.582190   0.000000   0.000000
                                        }
                                    }
                                }
                            }
                            JOINT LeftFinger1
                            {
                                OFFSET   8.364480   0.000000   3.252850
                                CHANNELS 3 Zrotation Xrotation Yrotation
                                JOINT LeftFinger11
                                {
                                    OFFSET   4.646930   0.000000   0.000000
                                    CHANNELS 3 Zrotation Xrotation Yrotation
                                    JOINT LeftFinger12
                                    {
                                        OFFSET   2.323460   0.000000   0.000000
                                        CHANNELS 3 Zrotation Xrotation Yrotation
                                        End Site
                                        {
                                            OFFSET   2.273050   0.000000   0.000000
                                        }
                                    }
                                }
                            }
                            JOINT LeftFinger2
                            {
                                OFFSET   8.364490   0.000015   1.078090
                                CHANNELS 3 Zrotation Xrotation Yrotation
                                JOINT LeftFinger21
                                {
                                    OFFSET   5.111620   0.000000   0.000000
                                    CHANNELS 3 Zrotation Xrotation Yrotation
                                    JOINT LeftFinger22
                                    {
                                        OFFSET   2.788160   0.000016   0.000000
                                        CHANNELS 3 Zrotation Xrotation Yrotation
                                        End Site
                                        {
                                            OFFSET   2.727660   0.000000   0.000000
                                        }
                                    }
                                }
                            }
                            JOINT LeftFinger3
                            {
                                OFFSET   7.899780   0.000017  -1.078090
                                CHANNELS 3 Zrotation Xrotation Yrotation
                                JOINT LeftFinger31
                                {
                                    OFFSET   4.646930   0.000000   0.000000
                                    CHANNELS 3 Zrotation Xrotation Yrotation
                                    JOINT LeftFinger32
                                    {
                                        OFFSET   2.323470   0.000000   0.000000
                                        CHANNELS 3 Zrotation Xrotation Yrotation
                                        End Site
                                        {
                                            OFFSET   2.273050   0.000000   0.000000
                                        }
                                    }
                                }
                            }
                            JOINT LeftFinger4
                            {
                                OFFSET   7.435090   0.000000  -3.252850
                                CHANNELS 3 Zrotation Xrotation Yrotation
                                JOINT LeftFinger41
                                {
                                    OFFSET   3.717550   0.000000   0.000000
                                    CHANNELS 3 Zrotation Xrotation Yrotation
                                    JOINT LeftFinger42
                                    {
                                        OFFSET   1.858770   0.000000   0.000000
                                        CHANNELS 3 Zrotation Xrotation Yrotation
                                        End Site
                                        {
                                            OFFSET   1.818440   0.000000   0.000000
                                        }
                                    }
                                }
                            }
                        }
                    }
                }
            }
            JOINT RightCollar
            {
                OFFSET  -3.911900  19.017000  -0.467063
                CHANNELS 3 Zrotation Xrotation Yrotation
                JOINT RightShoulder
                {
                    OFFSET -10.383700   0.000019   0.000000
                    CHANNELS 3 Zrotation Xrotation Yrotation
                    JOINT RightElbow
                    {
                        OFFSET -26.662100   0.001175   0.000102
                        CHANNELS 3 Zrotation Xrotation Yrotation
                        JOINT RightWrist
                        {
                            OFFSET -28.869000   0.000016  -0.000079
                            CHANNELS 3 Zrotation Xrotation Yrotation
                            JOINT RightFinger0
                            {
                                OFFSET  -2.044660  -2.323490   3.252850
                                CHANNELS 3 Zrotation Xrotation Yrotation
                                JOINT RightFinger01
                                {
                                    OFFSET  -3.088140   0.000000   0.000000
                                    CHANNELS 3 Zrotation Xrotation Yrotation
                                    JOINT RightFinger02
                                    {
                                        OFFSET  -2.639460   0.000000   0.000000
                                        CHANNELS 3 Zrotation Xrotation Yrotation
                                        End Site
                                        {
                                            OFFSET  -2.582190   0.000000   0.000000
                                        }
                                    }
                                }
                            }
                            JOINT RightFinger1
                            {
                                OFFSET  -8.364480   0.000000   3.252850
                                CHANNELS 3 Zrotation Xrotation Yrotation
                                JOINT RightFinger11
                                {
                                    OFFSET  -4.646930   0.000000   0.000000
                                    CHANNELS 3 Zrotation Xrotation Yrotation
                                    JOINT RightFinger12
                                    {
                                        OFFSET  -2.323470   0.000000   0.000000
                                        CHANNELS 3 Zrotation Xrotation Yrotation
                                        End Site
                                        {
                                            OFFSET  -2.273050   0.000000   0.000000
                                        }
                                    }
                                }
                            }
                            JOINT RightFinger2
                            {
                                OFFSET  -8.364480   0.000000   1.078090
                                CHANNELS 3 Zrotation Xrotation Yrotation
                                JOINT RightFinger21
                                {
                                    OFFSET  -5.111620   0.000000   0.000000
                                    CHANNELS 3 Zrotation Xrotation Yrotation
                                    JOINT RightFinger22
                                    {
                                        OFFSET  -2.788160   0.000000   0.000000
                                        CHANNELS 3 Zrotation Xrotation Yrotation
                                        End Site
                                        {
                                            OFFSET  -2.727660   0.000000   0.000000
                                        }
                                    }
                                }
                            }
                            JOINT RightFinger3
                            {
                                OFFSET  -7.899780   0.000000  -1.078090
                                CHANNELS 3 Zrotation Xrotation Yrotation
                                JOINT RightFinger31
                                {
                                    OFFSET  -4.646930   0.000000   0.000000
                                    CHANNELS 3 Zrotation Xrotation Yrotation
                                    JOINT RightFinger32
                                    {
                                        OFFSET  -2.323470   0.000000   0.000000
                                        CHANNELS 3 Zrotation Xrotation Yrotation
                                        End Site
                                        {
                                            OFFSET  -2.273050   0.000000   0.000000
                                        }
                                    }
                                }
                            }
                            JOINT RightFinger4
                            {
                                OFFSET  -7.435090   0.000000  -3.252850
                                CHANNELS 3 Zrotation Xrotation Yrotation
                                JOINT RightFinger41
                                {
                                    OFFSET  -3.717550   0.000000   0.000000
                                    CHANNELS 3 Zrotation Xrotation Yrotation
                                    JOINT RightFinger42
                                    {
                                        OFFSET  -1.858770   0.000000   0.000000
                                        CHANNELS 3 Zrotation Xrotation Yrotation
                                        End Site
                                        {
                                            OFFSET  -1.818440   0.000000   0.000000
                                        }
                                    }
                                }
                            }
                        }
                    }
                }
            }
        }
    }
    JOINT LeftHip
    {
        OFFSET   9.783040   0.000000   0.000000
        CHANNELS 3 Zrotation Xrotation Yrotation
        JOINT LeftKnee
        {
            OFFSET   0.000032 -41.789100  -0.002222
            CHANNELS 3 Zrotation Xrotation Yrotation
            JOINT LeftAnkle
            {
                OFFSET   0.000087 -41.133200  -0.000135
                CHANNELS 3 Zrotation Xrotation Yrotation
                JOINT LeftToe
                {
                    OFFSET   0.000000  -6.358960  14.674500
                    CHANNELS 3 Zrotation Xrotation Yrotation
                    End Site
                    {
                        OFFSET   0.000000   0.000000   3.913200
                    }
                }
            }
        }
    }
    JOINT RightHip
    {
        OFFSET  -9.783040   0.000000   0.000000
        CHANNELS 3 Zrotation Xrotation Yrotation
        JOINT RightKnee
        {
            OFFSET   0.000047 -41.789100  -0.000896
            CHANNELS 3 Zrotation Xrotation Yrotation
            JOINT RightAnkle
            {
                OFFSET  -0.000117 -41.133300  -0.000248
                CHANNELS 3 Zrotation Xrotation Yrotation
                JOINT RightToe
                {
                    OFFSET   0.000000  -6.358970  14.674500
                    CHANNELS 3 Zrotation Xrotation Yrotation
                    End Site
                    {
                        OFFSET   0.000000   0.000000   3.913200
                    }
                }
            }
        }
    }
}
MOTION
Frames: 5
Frame Time:   0.016667
 -1.318290  89.426100   1.456040  -2.495300  -6.268010   1.341230   1.762120   4.841530  -2.298510   3.738310   9.605690  -4.771260   0.979576  -1.574760   0.037086   1.620810  -3.202010  13.496800  -7.364860   2.729450  -0.099032 -72.002700  19.648900 -10.885000  -2.367480  -2.655790 -11.770700  10.227600  -5.100570  10.859100  41.270900  30.449800 -63.303300 -25.264300   0.004465   0.007626  -7.637770   0.003330   0.006838 -36.669800   7.152180  -9.501730 -30.499000  -0.002579  -0.001628 -21.349300  -0.001944  -0.000848 -29.635700   2.526010  -4.417500 -44.588000   0.005887  -0.000416 -29.703500   0.005532  -0.002662 -30.681300  -0.971004   1.639980 -46.031200   0.003090   0.013082 -30.664400   0.002859   0.008018 -41.951800  -1.665910   1.845140 -62.954800  -0.001772  -0.004344 -41.936500   0.010385  -0.002527   5.453470  -0.046859  13.933600  69.626500   7.730580   3.255480   0.381698  -1.101100   9.156370 -12.985500 -12.091400   0.215248 -36.762400  39.509100  75.421000  37.674800  -0.002376  -0.009919  13.837400  -0.002001  -0.009005  37.485800  11.310600  14.356000  31.838500  -0.009466   0.000000  22.286900   0.000700   0.001240  34.738800   4.775410   6.833420  52.536800  -0.004165  -0.001591  34.989500   0.011627   0.012015  36.542000   2.923980   3.920230  54.068400   0.011584  -0.001472  36.188900   0.013959   0.006530  46.960800  -3.369500  -3.141450  70.579900  -0.001906   0.000459  47.006200  -0.001340  -0.007460   4.301750  10.431500   4.234090   0.601639   0.583718  14.503300  -3.149470  -3.442760   1.742050  -0.000000   0.000000  -0.000000   0.478124   5.677210  -4.349450   1.393140   4.470050 -10.112000  -2.337220  -2.881610  -3.537500  -0.000000   0.000000  -0.000000
 -1.328030  89.426100   1.456060  -2.494940  -6.274500   1.341240   1.762730   4.846070  -2.295990   3.739540   9.614800  -4.766420   0.984696  -1.580530   0.037068   1.625800  -3.208710  13.496800  -7.364680   2.729480  -0.099042 -71.994300  19.672300 -10.896700  -2.371990  -2.675970 -11.774500  10.227300  -5.100210  10.859100  41.267300  30.445200 -63.297700 -25.264100   0.004463   0.007616  -7.635890   0.003326   0.006834 -36.669400   7.152110  -9.501650 -30.495100  -0.002583  -0.001626 -21.346600  -0.001944  -0.000847 -29.633200   2.526230  -4.417500 -44.588100   0.005889  -0.000416 -29.700700   0.005533  -0.002657 -30.678600  -0.971006   1.639300 -46.031400   0.003090   0.013081 -30.661800   0.002859   0.008017 -41.951900  -1.665910   1.845160 -62.961500  -0.001770  -0.004341 -41.936500   0.010385  -0.002527   5.453700  -0.048093  13.929800  69.617400   7.745220   3.255600   0.382895  -1.109970   9.143980 -12.997900 -12.106000   0.195483 -36.743400  39.495000  75.409800  37.684800  -0.002380  -0.009925  13.842900  -0.002003  -0.009007  37.452700  11.310100  14.369900  31.812700  -0.009468  -0.000000  22.268800   0.000694   0.001226  34.724300   4.775170   6.838530  52.515300  -0.004169  -0.001595  34.975200   0.011633   0.012013  36.496600   2.923710   3.929220  54.063600   0.011586  -0.001475  36.173200   0.013974   0.006524  46.933100  -3.359390  -3.135070  70.537600  -0.001915   0.000446  46.978000  -0.001346  -0.007466   4.310030  10.447500   4.240090   0.601092   0.557583  14.503300  -3.152530  -3.427530   1.742400  -0.000000   0.000000   0.000000   0.486342   5.712560  -4.344740   1.397300   4.439220 -10.111100  -2.344170  -2.881880  -3.537520  -0.000000   0.000000   0.000000
 -1.344780  89.426100   1.456080  -2.494510  -6.284680   1.341270   1.764020   4.853520  -2.290690   3.742070   9.629820  -4.756200   0.992464  -1.588480   0.037037   1.634080  -3.218190  13.496800  -7.364490   2.729510  -0.099052 -71.982000  19.707600 -10.913400  -2.378710  -2.705670 -11.781800  10.226600  -5.097640  10.859100  41.266700  30.438900 -63.289200 -25.263100   0.004451   0.007601  -7.631560   0.003316   0.006828 -36.666500   7.152050  -9.501580 -30.487500  -0.002590  -0.001616 -21.341200  -0.001945  -0.000845 -29.627800   2.526530  -4.417500 -44.588300   0.005894  -0.000414 -29.695800   0.005536  -0.002653 -30.673900  -0.971009   1.636530 -46.031700   0.003093   0.013079 -30.657100   0.002860   0.008012 -41.952000  -1.665920   1.845190 -62.968100  -0.001769  -0.004332 -41.936600   0.010385  -0.002527   5.454540  -0.051975  13.923700  69.604400   7.773450   3.255810   0.385879  -1.131330   9.117290 -13.012300 -12.126800   0.165790 -36.724300  39.480900  75.398500  37.698600  -0.002389  -0.009941  13.849300  -0.002006  -0.009011  37.393500  11.309100  14.394800  31.766400  -0.009474   0.000000  22.236500   0.000677   0.001190  34.695000   4.774880   6.848890  52.471700  -0.004182  -0.001604  34.946200   0.011649   0.012002  36.410900   2.923410   3.946160  54.055000   0.011601  -0.001486  36.143700   0.014015   0.006513  46.880200  -3.340100  -3.122890  70.457000  -0.001937   0.000412  46.924300  -0.001360  -0.007482   4.324940  10.470800   4.249680   0.601666   0.522130  14.503400  -3.158790  -3.405420   1.742740   0.000000   0.000000   0.000000   0.500189   5.761470  -4.336850   1.404240   4.397310 -10.110000  -2.355980  -2.882220  -3.537570  -0.000000   0.000000  -0.000000
 -1.359290  89.426200   1.456010  -2.496050  -6.291780   1.339310   1.765790   4.859390  -2.284220   3.745370   9.641700  -4.743600   0.997103  -1.591430   0.037017   1.640970  -3.222610  13.497700  -7.365760   2.725980  -0.095160 -71.976100  19.728500 -10.919900  -2.382410  -2.720910 -11.790700  10.225800  -5.087670  10.857700  41.281500  30.441000 -63.279300 -25.249300   0.004421   0.007596  -7.623620   0.003305   0.006822 -36.654300   7.152120  -9.501650 -30.476400  -0.002593  -0.001592 -21.333400  -0.001945  -0.000837 -29.618600   2.526650  -4.422350 -44.576800   0.005898  -0.000410 -29.689900   0.005540  -0.002653 -30.668400  -0.967169   1.628830 -46.024600   0.003099   0.013075 -30.651400   0.002864   0.007999 -41.952100  -1.664760   1.845250 -62.967800  -0.001769  -0.004321 -41.936800   0.010384  -0.002523   5.456130  -0.058655  13.919500  69.598700   7.804060   3.256010   0.393680  -1.163750   9.082890 -13.005700 -12.136800   0.149192 -36.719000  39.486800  75.414800  37.704000  -0.002401  -0.009966  13.850300  -0.002002  -0.009020  37.338900  11.307900  14.417800  31.723700  -0.009483   0.000000  22.206700   0.000645   0.001132  34.661300   4.774810   6.860810  52.421600  -0.004208  -0.001619  34.912900   0.011679   0.011979  36.321800   2.923410   3.963560  54.047600   0.011636  -0.001502  36.113600   0.014081   0.006497  46.824800  -3.319920  -3.110090  70.372500  -0.001972   0.000359  46.868000  -0.001383  -0.007510   4.339590  10.483900   4.257040   0.603039   0.510991  14.504100  -3.166100  -3.393170   1.738890  -0.000000   0.000000   0.000000   0.511585   5.780370  -4.329780   1.411240   4.383770 -10.110800  -2.366110  -2.882270  -3.537670   0.000000   0.000000   0.000000
 -1.374360  89.426200   1.455950  -2.498720  -6.297480   1.336300   1.767660   4.864890  -2.276330   3.748720   9.652910  -4.728130   1.000760  -1.592210   0.036993   1.647280  -3.224240  13.498700  -7.368470   2.720110  -0.089164 -71.972100  19.744500 -10.924200  -2.385170  -2.731940 -11.799300  10.228200  -5.079900  10.856400  41.291300  30.443900 -63.271300 -25.236300   0.004382   0.007586  -7.618130   0.003289   0.006813 -36.644700   7.152180  -9.501730 -30.469000  -0.002598  -0.001559 -21.328300  -0.001947  -0.000828 -29.612200   2.526680  -4.427200 -44.565200   0.005904  -0.000404 -29.686200   0.005545  -0.002653 -30.664900  -0.963329   1.623220 -46.017500   0.003107   0.013071 -30.647700   0.002870   0.007981 -41.952300  -1.663070   1.845310 -62.967600  -0.001770  -0.004305 -41.936900   0.010384  -0.002515   5.458420  -0.068036  13.915600  69.595700   7.839230   3.256240   0.405801  -1.200940   9.041870 -12.991000 -12.140700   0.135847 -36.716900  39.500600  75.442900  37.705600  -0.002408  -0.009997  13.850500  -0.001999  -0.009029  37.276800  11.306300  14.444000  31.675200  -0.009495   0.000000  22.172700   0.000608   0.001069  34.619900   4.774990   6.875440  52.360300  -0.004239  -0.001637  34.872000   0.011718   0.011948  36.219300   2.923760   3.983850  54.037400   0.011682  -0.001523  36.078200   0.014165   0.006478  46.759500  -3.296160  -3.094950  70.272800  -0.002017   0.000290  46.801700  -0.001411  -0.007547   4.354780  10.489700   4.262840   0.603267   0.509165  14.507300  -3.175700  -3.387790   1.730620   0.000000   0.000000   0.000000   0.523212   5.785720  -4.323900   1.415510   4.381320 -10.112600  -2.376030  -2.882310  -3.537780   0.000000   0.000000  -0.000000
